# xmcd
#
# Track frame offsets: 
#        150
#        17982
#        34936
#        53962
#        66975
#        77492
#        102022
#        117329
#        130703
#        143738
#        159833
#        174218
#        191995
#        207502
#        218475
#
# Disc length: 3161 seconds
#
# Revision: 0
# Processed by: cddbd v1.5.2PL0 Copyright (c) Steve Scherf et al.
# Submitted via: ExactAudioCopy v0.90b4
#
DISCID=cd0c570f
DTITLE=Buddy Greene - Happy Man
DYEAR=2007
DGENRE=Contemporary Christian
TTITLE0=Darlin Corey
TTITLE1=Sugar Foot Rag
TTITLE2=Last Thing On My Mind
TTITLE3=The Likes Of Me
TTITLE4=Little Rabbit
TTITLE5=Talk About Sufferin
TTITLE6=Wrasslin Jacob
TTITLE7=Happy Man
TTITLE8=Kemo Kimo
TTITLE9=Rise From The Ruins
TTITLE10=She Belongs To Me
TTITLE11=Road To Lisdoonvarna-Garryowen
TTITLE12=You Took All The Ramblin Out Of Me
TTITLE13=Wheel Hoss
TTITLE14=Walkin In Jerusalem
EXTD=
EXTT0=
EXTT1=
EXTT2=
EXTT3=
EXTT4=
EXTT5=
EXTT6=
EXTT7=
EXTT8=
EXTT9=
EXTT10=
EXTT11=
EXTT12=
EXTT13=
EXTT14=
PLAYORDER=
